<svg id="Layer_1" data-name="Layer 1" xmlns="http://www.w3.org/2000/svg" xmlns:xlink="http://www.w3.org/1999/xlink" viewBox="0 0 2352.07 2480.13"><defs><style>.cls-1{fill:#fff;}.cls-2{clip-path:url(#clip-path);}.cls-3{clip-path:url(#clip-path-2);}.cls-4{clip-path:url(#clip-path-3);}.cls-5{clip-path:url(#clip-path-4);}.cls-6{clip-path:url(#clip-path-5);}.cls-7{clip-path:url(#clip-path-6);}</style><clipPath id="clip-path" transform="translate(2438.44 77.81)"><path class="cls-1" d="M-865.29,882c-7.52,24.67-16.06,52.83-25.65,83.77h127.55C-771,941.65-777.87,918.89-784,899.3-804,834.67-815.6,796.87-818.78,786.23q-6.19-20.73-8.89-32.74-8,31-37.62,128.46"/></clipPath><clipPath id="clip-path-2" transform="translate(2438.44 77.81)"><path class="cls-1" d="M-1640.63,1478a469.78,469.78,0,0,0,43.32,101.48,427.44,427.44,0,0,0,31.74,47.49,430.24,430.24,0,0,0,31.74-47.49A469.68,469.68,0,0,0-1490.52,1478Z"/></clipPath><clipPath id="clip-path-3" transform="translate(2438.44 77.81)"><path class="cls-1" d="M-1524.14,305.79a616.14,616.14,0,0,0-97.31,18.08c-16.85,4.84-34,10-51.16,16.64-2.16.8-4.32,1.57-6.47,2.38s-4.28,1.74-6.42,2.6l-12.89,5.29c-8.5,3.88-17.2,7.52-25.65,11.83A582.06,582.06,0,0,0-1823,423.77c-15.68,12-30.73,25-45.28,38.54-3.55,3.47-7.1,7-10.65,10.45-1.78,1.77-3.55,3.41-5.32,5.27l-5.32,5.57-5.3,5.59c-1.75,1.85-3.59,3.76-5,5.46l-9.22,10.5-2.77,3.11-2.35,2.87-4.73,5.76c-3.14,3.83-6.32,7.62-9.29,11.6l-9,11.78q-4.27,6-8.58,12.06a554.32,554.32,0,0,0-31.07,49.75l-3.53,6.34-3.35,6.41c-2.19,4.32-4.44,8.56-6.56,12.85-4.09,8.69-8.26,17.25-11.87,26-3.88,8.63-7.14,17.46-10.54,26.12-1.59,4.36-3.08,8.77-4.61,13.13-.77,2.16-1.52,4.34-2.26,6.52s-1.37,4.39-2.06,6.57c-5.67,17.42-10,34.88-13.77,52-1.76,8.59-3.53,17.09-4.81,25.54-1.54,8.42-2.53,16.8-3.63,25.05a560.14,560.14,0,0,0-4,66.36v1.33q0,13.07.57,25.52a554.6,554.6,0,0,0,9.08,77.79,577.25,577.25,0,0,0,14.4,58.3c2.51,7.92,4.65,15,6.94,21.13,2.13,6.11,3.93,11.36,5.58,15.36.84,2.12,1.56,4,2.2,5.57a7.77,7.77,0,0,0,9.73,4.52l.61-.21a7,7,0,0,0,1.33-.61,7.72,7.72,0,0,0,3.64-8.88q-.7-2.49-1.66-5.77c-1.29-4.21-2.49-9.32-4-15.31s-3-13-4.68-20.79a551.58,551.58,0,0,1-8.48-56.94,519.57,519.57,0,0,1-1.64-74.2,532.15,532.15,0,0,1,11.33-86.36c1.75-7.51,3.38-15.13,5.51-22.74,1.91-7.66,4.29-15.26,6.61-23,5-15.33,10.37-30.82,17-46.11.79-1.92,1.58-3.83,2.39-5.77s1.75-3.8,2.63-5.71c1.75-3.8,3.47-7.64,5.29-11.44,3.82-7.54,7.48-15.19,11.69-22.59,4-7.56,8.46-14.86,12.83-22.27,2.25-3.66,4.62-7.27,6.94-10.9l3.49-5.44,3.68-5.37a495.47,495.47,0,0,1,31.64-41.42c2.85-3.3,5.64-6.65,8.48-10l8.79-9.7c2.89-3.25,5.81-6.51,8.87-9.6l4.17-5.07,1.26-3,.14-.15,1.08.68,1.54.25,1.28-1.2,10.18-9.59c1.74-1.7,3.28-3,4.86-4.36l4.75-4.11,4.74-4.13c1.57-1.35,3.34-2.7,5-4.07l10.07-8.18c13.7-10.49,27.69-20.42,42.05-29.43a495.61,495.61,0,0,1,88.65-43.82c7.41-3,15-5.27,22.39-7.87,3.75-1.11,7.49-2.24,11.19-3.37,1.85-.54,3.7-1.12,5.55-1.67l5.58-1.46c14.73-4.15,29.42-7,43.69-9.74a506.84,506.84,0,0,1,81.09-7.22,483.76,483.76,0,0,1,68.16,4.37,484.42,484.42,0,0,1,51.38,9.85c7,1.8,13.27,3.33,18.63,5s10,2.87,13.59,4.18c7.32,2.4,11.23,3.7,11.23,3.7l9.2-14.9,60.56-98.19s-38.94-10.78-48.46-13c-4.74-1.15-10.68-2.27-17.61-3.61s-14.93-2.67-23.91-4.06a606.85,606.85,0,0,0-65-6.14q-11.44-.42-23.77-.44a586.19,586.19,0,0,0-60.41,3.06"/></clipPath><clipPath id="clip-path-4" transform="translate(2438.44 77.81)"><polygon class="cls-1" points="-1252.98 295.34 -1450.3 476.05 -1132.76 523.61 -1252.98 295.34"/></clipPath><clipPath id="clip-path-5" transform="translate(2438.44 77.81)"><path class="cls-1" d="M-498.89,1417.4l-.48.23a6.4,6.4,0,0,0-1,.65,6.42,6.42,0,0,0-2,7.69c.57,1.31,1.23,2.83,2,4.56,1.51,3.32,3.05,7.38,4.95,12.14s3.88,10.33,6.1,16.57a456.47,456.47,0,0,1,13.13,45.85,429.79,429.79,0,0,1,9.4,60.76,441.7,441.7,0,0,1,.05,72.16c-.62,6.36-1.14,12.8-2.06,19.29-.74,6.49-1.87,13-2.94,19.58-2.42,13.13-5.18,26.44-9,39.72q-.66,2.49-1.34,5c-.51,1.66-1,3.32-1.54,5-1,3.32-2,6.66-3.1,10-2.32,6.61-4.5,13.29-7.15,19.82-2.44,6.64-5.34,13.13-8.13,19.68-1.45,3.25-3,6.48-4.52,9.71l-2.27,4.85-2.44,4.81a408.82,408.82,0,0,1-21.49,37.46c-2,3-3.89,6.09-5.87,9.13l-6.12,8.94c-2,3-4,6-6.18,8.91l-2.73,4.72-.42,2.79-.1.15-1.25-.66-1.58-.24-.93,1.13-7.31,9c-1.25,1.59-2.38,2.81-3.52,4.11l-3.46,3.89-3.44,3.91c-1.15,1.27-2.46,2.58-3.67,3.88l-7.39,7.81c-10.11,10.1-20.52,19.78-31.34,28.74a410.33,410.33,0,0,1-68.07,45.6c-5.77,3.22-11.76,6-17.53,8.89q-4.46,2-8.83,4l-4.38,2-4.42,1.8c-11.66,5-23.4,9-34.84,12.74A419,419,0,0,1-822,2018.75a401.48,401.48,0,0,1-56.45,3.81A403,403,0,0,1-921.7,2020c-6-.72-11.25-1.3-15.84-2.11s-8.49-1.28-11.62-2c-6.27-1.18-9.62-1.83-9.62-1.83l-6,13.24-39.1,87.22s33.16,4.63,41.21,5.39c4,.43,9,.7,14.86,1.05s12.56.58,20.08.75a500.91,500.91,0,0,0,54.06-2,498.38,498.38,0,0,0,68.86-11.27,511.48,511.48,0,0,0,78-25.4c13.31-5.81,26.88-11.93,40.22-19.21,1.68-.9,3.37-1.76,5.06-2.66s3.32-1.89,5-2.83l10-5.75c6.56-4.11,13.31-8,19.79-12.49a481.73,481.73,0,0,0,74.61-61c11.58-11.58,22.53-23.87,33-36.57,2.54-3.23,5.07-6.5,7.62-9.73,1.26-1.65,2.54-3.18,3.8-4.91l3.76-5.15,3.74-5.17c1.24-1.71,2.55-3.47,3.53-5l6.45-9.62,1.93-2.85,1.62-2.61,3.26-5.25c2.17-3.48,4.36-6.94,6.37-10.53l6.1-10.65c1.91-3.61,3.84-7.22,5.74-10.84A456.09,456.09,0,0,0-465,1816.06l2.21-5.59,2.06-5.63c1.33-3.78,2.72-7.51,4-11.27,2.42-7.58,4.92-15.06,6.93-22.64,2.25-7.51,4-15.12,5.83-22.6.84-3.76,1.58-7.54,2.36-11.29.4-1.86.78-3.73,1.16-5.6s.65-3.75,1-5.61c2.77-14.93,4.43-29.74,5.68-44.2.51-7.24,1-14.41,1.18-21.5.35-7.07.26-14.07.26-21a471,471,0,0,0-7.32-76.93,457.62,457.62,0,0,0-15.88-62.91A478.3,478.3,0,0,0-473.76,1453c-2.92-6.24-5.44-11.82-8-16.61s-4.46-8.91-6.25-12l-2.41-4.34a6.42,6.42,0,0,0-5.64-3.32,6.4,6.4,0,0,0-2.84.67"/></clipPath><clipPath id="clip-path-6" transform="translate(2438.44 77.81)"><polygon class="cls-1" points="-1026.35 2146.48 -883.87 1976.65 -1149.84 1972.01 -1026.35 2146.48"/></clipPath></defs><path class="cls-1" d="M-865.29,882c-7.52,24.67-16.06,52.83-25.65,83.77h127.55C-771,941.65-777.87,918.89-784,899.3-804,834.67-815.6,796.87-818.78,786.23q-6.19-20.73-8.89-32.74-8,31-37.62,128.46" transform="translate(2438.44 77.81)"/><g class="cls-2"><rect class="cls-1" x="-893.62" y="751.9" width="132.91" height="215.4" transform="translate(2416.28 57.02) rotate(-1.46)"/></g><path class="cls-1" d="M-552.27,556.58h-551.15c-35.72,0-68,11.9-94.87,31.36-41.11,29.71-67,78.53-67,133.15v453.16c0,90.36,71.57,162.78,161.92,162.78h20.3v163.15c0,8.57,5.74,16.31,13.64,19.56a22.15,22.15,0,0,0,23.69-4.58L-867.92,1337h315.65a162.78,162.78,0,0,0,114.74-46.55,162.2,162.2,0,0,0,48.91-116.23V721.09C-388.62,630.74-461.92,556.58-552.27,556.58ZM-703.13,1172l-35.48-123.77H-917L-952.56,1172h-111.8l105.78-302.74,67-192.34h126.88l95.08,271.22L-591.29,1172Z" transform="translate(2438.44 77.81)"/><path class="cls-1" d="M-552.27,556.58h-551.15c-35.72,0-68,11.9-94.87,31.36-41.11,29.71-67,78.53-67,133.15v453.16c0,90.36,71.57,162.78,161.92,162.78h20.3v163.15c0,8.57,5.74,16.31,13.64,19.56a22.15,22.15,0,0,0,23.69-4.58L-867.92,1337h315.65a162.78,162.78,0,0,0,114.74-46.55,162.2,162.2,0,0,0,48.91-116.23V721.09C-388.62,630.74-461.92,556.58-552.27,556.58ZM-703.13,1172l-35.48-123.77H-917L-952.56,1172h-111.8l105.78-302.74,67-192.34h126.88l95.08,271.22L-591.29,1172Z" transform="translate(2438.44 77.81)"/><path class="cls-1" d="M-1640.63,1478a469.78,469.78,0,0,0,43.32,101.48,427.44,427.44,0,0,0,31.74,47.49,430.24,430.24,0,0,0,31.74-47.49A469.68,469.68,0,0,0-1490.52,1478Z" transform="translate(2438.44 77.81)"/><g class="cls-3"><rect class="cls-1" x="-1646.99" y="1470.57" width="162.83" height="163.84" transform="translate(-520.54 -78.41) rotate(-84.44)"/></g><path class="cls-1" d="M-1290.63,1196.07h-551.14c-32.76,0-64.54,8.78-90.12,25.33-45,29.15-76.08,79-76.08,136.57v453.16c0,90.35,75.84,165.39,166.2,165.39h318.68l174.2,174a20.89,20.89,0,0,0,14.73,6.2h.12a21.1,21.1,0,0,0,8-1.62c7.91-3.29,12.57-11,12.57-19.56v-159h22.84c48.22,0,91.19-21.75,121.11-54.92,26.17-29,41.71-68.34,41.71-110.47V1358C-1127.81,1267.62-1200.28,1196.07-1290.63,1196.07ZM-1327.22,1478h-85.16a543.73,543.73,0,0,1-54.55,136.39,493.53,493.53,0,0,1-46.62,68.07c48,41.88,106,70.83,173.57,86.47l-17,73.46c-89.77-20.8-157.64-60.6-208.57-105.71-50.93,45.11-118.8,84.91-208.57,105.71l-17-73.46c67.52-15.64,125.54-44.59,173.56-86.47a493.41,493.41,0,0,1-46.61-68.07A543.73,543.73,0,0,1-1718.76,1478h-86.36v-75.64h202.85v-75.64h72.2v75.64h202.85Z" transform="translate(2438.44 77.81)"/><path class="cls-1" d="M-1290.63,1196.07h-551.14c-32.76,0-64.54,8.78-90.12,25.33-45,29.15-76.08,79-76.08,136.57v453.16c0,90.35,75.84,165.39,166.2,165.39h318.68l174.2,174a20.89,20.89,0,0,0,14.73,6.2h.12a21.1,21.1,0,0,0,8-1.62c7.91-3.29,12.57-11,12.57-19.56v-159h22.84c48.22,0,91.19-21.75,121.11-54.92,26.17-29,41.71-68.34,41.71-110.47V1358C-1127.81,1267.62-1200.28,1196.07-1290.63,1196.07ZM-1327.22,1478h-85.16a543.73,543.73,0,0,1-54.55,136.39,493.53,493.53,0,0,1-46.62,68.07c48,41.88,106,70.83,173.57,86.47l-17,73.46c-89.77-20.8-157.64-60.6-208.57-105.71-50.93,45.11-118.8,84.91-208.57,105.71l-17-73.46c67.52-15.64,125.54-44.59,173.56-86.47a493.41,493.41,0,0,1-46.61-68.07A543.73,543.73,0,0,1-1718.76,1478h-86.36v-75.64h202.85v-75.64h72.2v75.64h202.85Z" transform="translate(2438.44 77.81)"/><path class="cls-1" d="M-1524.14,305.79a616.14,616.14,0,0,0-97.31,18.08c-16.85,4.84-34,10-51.16,16.64-2.16.8-4.32,1.57-6.47,2.38s-4.28,1.74-6.42,2.6l-12.89,5.29c-8.5,3.88-17.2,7.52-25.65,11.83A582.06,582.06,0,0,0-1823,423.77c-15.68,12-30.73,25-45.28,38.54-3.55,3.47-7.1,7-10.65,10.45-1.78,1.77-3.55,3.41-5.32,5.27l-5.32,5.57-5.3,5.59c-1.75,1.85-3.59,3.76-5,5.46l-9.22,10.5-2.77,3.11-2.35,2.87-4.73,5.76c-3.14,3.83-6.32,7.62-9.29,11.6l-9,11.78q-4.27,6-8.58,12.06a554.32,554.32,0,0,0-31.07,49.75l-3.53,6.34-3.35,6.41c-2.19,4.32-4.44,8.56-6.56,12.85-4.09,8.69-8.26,17.25-11.87,26-3.88,8.63-7.14,17.46-10.54,26.12-1.59,4.36-3.08,8.77-4.61,13.13-.77,2.16-1.52,4.34-2.26,6.52s-1.37,4.39-2.06,6.57c-5.67,17.42-10,34.88-13.77,52-1.76,8.59-3.53,17.09-4.81,25.54-1.54,8.42-2.53,16.8-3.63,25.05a560.14,560.14,0,0,0-4,66.36v1.33q0,13.07.57,25.52a554.6,554.6,0,0,0,9.08,77.79,577.25,577.25,0,0,0,14.4,58.3c2.51,7.92,4.65,15,6.94,21.13,2.13,6.11,3.93,11.36,5.58,15.36.84,2.12,1.56,4,2.2,5.57a7.77,7.77,0,0,0,9.73,4.52l.61-.21a7,7,0,0,0,1.33-.61,7.72,7.72,0,0,0,3.64-8.88q-.7-2.49-1.66-5.77c-1.29-4.21-2.49-9.32-4-15.31s-3-13-4.68-20.79a551.58,551.58,0,0,1-8.48-56.94,519.57,519.57,0,0,1-1.64-74.2,532.15,532.15,0,0,1,11.33-86.36c1.75-7.51,3.38-15.13,5.51-22.74,1.91-7.66,4.29-15.26,6.61-23,5-15.33,10.37-30.82,17-46.11.79-1.92,1.58-3.83,2.39-5.77s1.75-3.8,2.63-5.71c1.75-3.8,3.47-7.64,5.29-11.44,3.82-7.54,7.48-15.19,11.69-22.59,4-7.56,8.46-14.86,12.83-22.27,2.25-3.66,4.62-7.27,6.94-10.9l3.49-5.44,3.68-5.37a495.47,495.47,0,0,1,31.64-41.42c2.85-3.3,5.64-6.65,8.48-10l8.79-9.7c2.89-3.25,5.81-6.51,8.87-9.6l4.17-5.07,1.26-3,.14-.15,1.08.68,1.54.25,1.28-1.2,10.18-9.59c1.74-1.7,3.28-3,4.86-4.36l4.75-4.11,4.74-4.13c1.57-1.35,3.34-2.7,5-4.07l10.07-8.18c13.7-10.49,27.69-20.42,42.05-29.43a495.61,495.61,0,0,1,88.65-43.82c7.41-3,15-5.27,22.39-7.87,3.75-1.11,7.49-2.24,11.19-3.37,1.85-.54,3.7-1.12,5.55-1.67l5.58-1.46c14.73-4.15,29.42-7,43.69-9.74a506.84,506.84,0,0,1,81.09-7.22,483.76,483.76,0,0,1,68.16,4.37,484.42,484.42,0,0,1,51.38,9.85c7,1.8,13.27,3.33,18.63,5s10,2.87,13.59,4.18c7.32,2.4,11.23,3.7,11.23,3.7l9.2-14.9,60.56-98.19s-38.94-10.78-48.46-13c-4.74-1.15-10.68-2.27-17.61-3.61s-14.93-2.67-23.91-4.06a606.85,606.85,0,0,0-65-6.14q-11.44-.42-23.77-.44a586.19,586.19,0,0,0-60.41,3.06" transform="translate(2438.44 77.81)"/><g class="cls-4"><rect class="cls-1" x="-2212.39" y="147.78" width="1092.01" height="1092.98" transform="translate(1515.55 -872.93) rotate(-43.06)"/></g><polygon class="cls-1" points="1185.46 373.15 988.14 553.86 1305.67 601.42 1185.46 373.15"/><g class="cls-5"><rect class="cls-1" x="-1485.46" y="217.68" width="387.86" height="383.59" transform="translate(1810.97 -693.7) rotate(-43.06)"/></g><path class="cls-1" d="M-498.89,1417.4l-.48.23a6.4,6.4,0,0,0-1,.65,6.42,6.42,0,0,0-2,7.69c.57,1.31,1.23,2.83,2,4.56,1.51,3.32,3.05,7.38,4.95,12.14s3.88,10.33,6.1,16.57a456.47,456.47,0,0,1,13.13,45.85,429.79,429.79,0,0,1,9.4,60.76,441.7,441.7,0,0,1,.05,72.16c-.62,6.36-1.14,12.8-2.06,19.29-.74,6.49-1.87,13-2.94,19.58-2.42,13.13-5.18,26.44-9,39.72q-.66,2.49-1.34,5c-.51,1.66-1,3.32-1.54,5-1,3.32-2,6.66-3.1,10-2.32,6.61-4.5,13.29-7.15,19.82-2.44,6.64-5.34,13.13-8.13,19.68-1.45,3.25-3,6.48-4.52,9.71l-2.27,4.85-2.44,4.81a408.82,408.82,0,0,1-21.49,37.46c-2,3-3.89,6.09-5.87,9.13l-6.12,8.94c-2,3-4,6-6.18,8.91l-2.73,4.72-.42,2.79-.1.15-1.25-.66-1.58-.24-.93,1.13-7.31,9c-1.25,1.59-2.38,2.81-3.52,4.11l-3.46,3.89-3.44,3.91c-1.15,1.27-2.46,2.58-3.67,3.88l-7.39,7.81c-10.11,10.1-20.52,19.78-31.34,28.74a410.33,410.33,0,0,1-68.07,45.6c-5.77,3.22-11.76,6-17.53,8.89q-4.46,2-8.83,4l-4.38,2-4.42,1.8c-11.66,5-23.4,9-34.84,12.74A419,419,0,0,1-822,2018.75a401.48,401.48,0,0,1-56.45,3.81A403,403,0,0,1-921.7,2020c-6-.72-11.25-1.3-15.84-2.11s-8.49-1.28-11.62-2c-6.27-1.18-9.62-1.83-9.62-1.83l-6,13.24-39.1,87.22s33.16,4.63,41.21,5.39c4,.43,9,.7,14.86,1.05s12.56.58,20.08.75a500.91,500.91,0,0,0,54.06-2,498.38,498.38,0,0,0,68.86-11.27,511.48,511.48,0,0,0,78-25.4c13.31-5.81,26.88-11.93,40.22-19.21,1.68-.9,3.37-1.76,5.06-2.66s3.32-1.89,5-2.83l10-5.75c6.56-4.11,13.31-8,19.79-12.49a481.73,481.73,0,0,0,74.61-61c11.58-11.58,22.53-23.87,33-36.57,2.54-3.23,5.07-6.5,7.62-9.73,1.26-1.65,2.54-3.18,3.8-4.91l3.76-5.15,3.74-5.17c1.24-1.71,2.55-3.47,3.53-5l6.45-9.62,1.93-2.85,1.62-2.61,3.26-5.25c2.17-3.48,4.36-6.94,6.37-10.53l6.1-10.65c1.91-3.61,3.84-7.22,5.74-10.84A456.09,456.09,0,0,0-465,1816.06l2.21-5.59,2.06-5.63c1.33-3.78,2.72-7.51,4-11.27,2.42-7.58,4.92-15.06,6.93-22.64,2.25-7.51,4-15.12,5.83-22.6.84-3.76,1.58-7.54,2.36-11.29.4-1.86.78-3.73,1.16-5.6s.65-3.75,1-5.61c2.77-14.93,4.43-29.74,5.68-44.2.51-7.24,1-14.41,1.18-21.5.35-7.07.26-14.07.26-21a471,471,0,0,0-7.32-76.93,457.62,457.62,0,0,0-15.88-62.91A478.3,478.3,0,0,0-473.76,1453c-2.92-6.24-5.44-11.82-8-16.61s-4.46-8.91-6.25-12l-2.41-4.34a6.42,6.42,0,0,0-5.64-3.32,6.4,6.4,0,0,0-2.84.67" transform="translate(2438.44 77.81)"/><g class="cls-6"><rect class="cls-1" x="-1171.93" y="1324.69" width="907.71" height="889.33" transform="translate(809.54 168.88) rotate(-50.58)"/></g><polygon class="cls-1" points="1412.09 2224.29 1554.57 2054.47 1288.6 2049.82 1412.09 2224.29"/><g class="cls-7"><rect class="cls-1" x="-1168.69" y="1901.12" width="303.67" height="316.25" transform="translate(476.55 43.88) rotate(-50.58)"/></g></svg>