<svg id="Layer_1" data-name="Layer 1" xmlns="http://www.w3.org/2000/svg" viewBox="0 0 123.34 79.03"><defs><style>.cls-1{fill:#fff;}</style></defs><path class="cls-1" d="M75.74,39.16A14.07,14.07,0,1,1,61.67,25.08,14.07,14.07,0,0,1,75.74,39.16Z" transform="translate(0 0)"/><path class="cls-1" d="M61.67,53.23A14.08,14.08,0,1,1,75.74,39.16,14.07,14.07,0,0,1,61.67,53.23Z" transform="translate(0 0)"/><path class="cls-1" d="M105.22,39.16A43.71,43.71,0,0,1,95.47,66.6a5,5,0,1,1-7.69-6.26,33.56,33.56,0,0,0,.49-41.75,5,5,0,0,1,3.92-8,4.89,4.89,0,0,1,3.91,1.92,43.11,43.11,0,0,1,9.12,26.64Z" transform="translate(0 0)"/><path class="cls-1" d="M123.34,39.16a61.83,61.83,0,0,1-13.48,38.47,3.71,3.71,0,1,1-5.8-4.64,54.4,54.4,0,0,0,11.85-33.83A53.71,53.71,0,0,0,104.58,6a3.73,3.73,0,0,1,.67-5.22,3.73,3.73,0,0,1,5.21.67A61.05,61.05,0,0,1,123.34,39.16Z" transform="translate(0 0)"/><path class="cls-1" d="M107,79a3.69,3.69,0,0,0,2.9-1.4,61.83,61.83,0,0,0,13.48-38.47A61.05,61.05,0,0,0,110.46,1.44,3.72,3.72,0,1,0,104.58,6a53.71,53.71,0,0,1,11.33,33.17A54.4,54.4,0,0,1,104.06,73a3.71,3.71,0,0,0,2.9,6Z" transform="translate(0 0)"/><path class="cls-1" d="M34.84,67.32a5,5,0,0,1-7-.72,43.37,43.37,0,0,1-.63-54.08,4.92,4.92,0,0,1,3.92-1.92,4.86,4.86,0,0,1,3,1,5,5,0,0,1,.88,7,33.56,33.56,0,0,0,.49,41.75A5,5,0,0,1,34.84,67.32Z" transform="translate(0 0)"/><path class="cls-1" d="M19.29,73a3.72,3.72,0,1,1-5.81,4.64A61.83,61.83,0,0,1,0,39.16,61.05,61.05,0,0,1,12.88,1.44,3.72,3.72,0,1,1,18.76,6,53.71,53.71,0,0,0,7.43,39.16,54.35,54.35,0,0,0,19.29,73Z" transform="translate(0 0)"/><path class="cls-1" d="M15.82,0a3.69,3.69,0,0,0-2.94,1.44A61.05,61.05,0,0,0,0,39.16,61.83,61.83,0,0,0,13.48,77.63,3.72,3.72,0,1,0,19.29,73,54.35,54.35,0,0,1,7.43,39.16,53.71,53.71,0,0,1,18.76,6,3.73,3.73,0,0,0,18.09.77,3.68,3.68,0,0,0,15.82,0Z" transform="translate(0 0)"/></svg>