<svg id="Layer_1" data-name="Layer 1" xmlns="http://www.w3.org/2000/svg" viewBox="0 0 90.86 103.09"><defs><style>.cls-1{fill:#f2cb72;}.cls-2{fill:none;}</style></defs><path class="cls-1" d="M52,92.28H34.66a2.29,2.29,0,0,0-2.2,3,11.47,11.47,0,0,0,21.74,0,2.29,2.29,0,0,0-2.2-3" transform="translate(0 0)"/><path class="cls-1" d="M74.82,69.25V50h0A24.41,24.41,0,0,1,54.56,12a31.45,31.45,0,0,0-3.93-1.24V7.37a7.37,7.37,0,0,0-14.74,0v3.32A31.75,31.75,0,0,0,11.57,41.45v27.7h-.05L.87,79.1c-2.3,3.17.23,7.36,4.42,7.36H82.34c4.34,0,6.83-4.44,4.26-7.58Z" transform="translate(0 0)"/><path class="cls-1" d="M90.86,26A16.73,16.73,0,1,1,74.13,9.29,16.73,16.73,0,0,1,90.86,26" transform="translate(0 0)"/><rect class="cls-2" width="90.86" height="103.09"/></svg>