<svg xmlns="http://www.w3.org/2000/svg" viewBox="0 0 172.55 246.81"><g id="Layer_2" data-name="Layer 2"><g id="icons"><path d="M160.65,44.51H142.29a3,3,0,0,0-3,3V65.34a3,3,0,0,1-3,3H35.65a3,3,0,0,1-3-3V47.49a3,3,0,0,0-3-3H11.9A11.9,11.9,0,0,0,0,56.41v178.5a11.9,11.9,0,0,0,11.9,11.9H160.65a11.9,11.9,0,0,0,11.9-11.9V56.41A11.9,11.9,0,0,0,160.65,44.51ZM72.91,103.36h60.15a7.44,7.44,0,0,1,0,14.88H72.91a7.44,7.44,0,0,1,0-14.88Zm0,29.75h60.15a7.44,7.44,0,0,1,0,14.88H72.91a7.44,7.44,0,0,1,0-14.88ZM40.18,177.74H37.86a7.44,7.44,0,0,1,0-14.88h2.32a7.44,7.44,0,1,1,0,14.88Zm0-29.75H37.86a7.44,7.44,0,0,1,0-14.88h2.32a7.44,7.44,0,1,1,0,14.88Zm0-29.75H37.86a7.44,7.44,0,0,1,0-14.88h2.32a7.44,7.44,0,0,1,0,14.88Zm93.69,59.5h-61a7.44,7.44,0,0,1,0-14.88h61a7.44,7.44,0,0,1,0,14.88Z"/><path d="M108.7,25a10.88,10.88,0,0,1-7.55-10.24A14.57,14.57,0,0,0,86.58,0H86C78.08,0,71.09,6.26,71.39,14.14A11,11,0,0,1,63.88,25c-9.46,3.19-16.33,6.12-16.33,16.64v8.92a3,3,0,0,0,3,3H122a3,3,0,0,0,3-3V41.65C125,31.15,118.13,28.21,108.7,25Z"/></g></g></svg>