<svg xmlns="http://www.w3.org/2000/svg" viewBox="0 0 201.49 178.79"><g id="Layer_2" data-name="Layer 2"><g id="icons"><path d="M167.57,178.79a14.71,14.71,0,1,1,0-29.42h4.5v-6.9a1.34,1.34,0,0,1,0-.2,14.71,14.71,0,0,1,29.42-.18h0v14.74a22,22,0,0,1-21.94,22Zm-37.91,0H91.76a14.71,14.71,0,1,1,0-29.42h37.9a14.71,14.71,0,1,1,0,29.42Zm-75.81,0H22a21.93,21.93,0,0,1-16.2-7.15,14.71,14.71,0,0,1,18.86-22.27H53.85a14.71,14.71,0,1,1,0,29.42ZM14.71,139A14.73,14.73,0,0,1,0,124.29V86.38a14.71,14.71,0,0,1,29.42,0v37.91A14.73,14.73,0,0,1,14.71,139Zm172.07-19.92a14.73,14.73,0,0,1-14.71-14.71V66.46a14.71,14.71,0,1,1,29.42,0v37.91A14.72,14.72,0,0,1,186.78,119.08ZM14.71,63.18A14.73,14.73,0,0,1,0,48.47V22A22,22,0,0,1,22,0H45.89a14.71,14.71,0,1,1,0,29.42H29.42v19A14.73,14.73,0,0,1,14.71,63.18ZM186.78,43.26A14.7,14.7,0,0,1,172.1,29.42H159.61a14.72,14.72,0,0,1-14.67-13.58c0-.37,0-.75,0-1.13A14.72,14.72,0,0,1,159.61,0h19.94a22,22,0,0,1,21.94,22v6.59A14.72,14.72,0,0,1,186.78,43.26ZM121.71,29.42H83.8A14.71,14.71,0,0,1,83.8,0h37.91a14.71,14.71,0,0,1,0,29.42Z"/></g></g></svg>