<svg xmlns="http://www.w3.org/2000/svg" viewBox="0 0 76.87 107.62"><g id="Layer_2" data-name="Layer 2"><g id="icons"><path d="M0,28.11V25.94C.82,23.68,2.52,23,4.8,23Q38.4,23.1,72,23c2.2,0,3.9.55,4.85,2.66v2.41a4,4,0,0,1-4.45,2.65c-1.06-.08-2.12,0-3.23,0v1.61q0,33.44,0,66.87a8.79,8.79,0,0,1-1.13,4.71,8.62,8.62,0,0,1-5.12,3.68h-49c-.58-.23-1.19-.42-1.76-.71-3.22-1.61-4.5-4.32-4.49-7.82q0-33.43,0-66.85V30.75a27.32,27.32,0,0,0-2.88,0A4.27,4.27,0,0,1,0,28.11ZM30.75,65.32c0-7.36-.08-14.73.05-22.09a4.06,4.06,0,0,0-3.86-3.88,3.84,3.84,0,0,0-3.88,3.85V87.37a3.83,3.83,0,0,0,3.84,3.88,4,4,0,0,0,3.9-3.85C30.67,80,30.75,72.68,30.75,65.32Zm23.06,0V43.19A3.73,3.73,0,0,0,50,39.36a3.8,3.8,0,0,0-3.84,3.88c0,14.69,0,29.37,0,44.06a4.11,4.11,0,0,0,3.93,4,4.06,4.06,0,0,0,3.85-3.9C53.73,80,53.81,72.64,53.81,65.27Z"/><path d="M26.18,0H50.69c3.92,1.31,3,4.7,3.14,7.69h1.42c5.59,0,11.18,0,16.78,0,2.2,0,3.9.56,4.84,2.67v2.4c-.82,2-2.31,2.68-4.45,2.67q-33.81-.06-67.61,0c-2.25,0-3.87-.58-4.81-2.68V10.57c.8-2.2,2.43-2.93,4.68-2.9,5.68.06,11.36,0,17,0h1.34c0-1,.05-1.84,0-2.67C22.87,2.57,23.81.84,26.18,0Z"/></g></g></svg>