<svg xmlns="http://www.w3.org/2000/svg" viewBox="0 0 206.33 192.18"><defs><style>.cls-1{fill:#f1f2f2;}.cls-2{fill:#d1d3d4;}.cls-3{fill:#e6e7e8;}.cls-4{fill:#0dac50;}.cls-5{opacity:0.2;}.cls-6{fill:#fff;}.cls-7{fill:#231f20;}.cls-8{fill:#505050;}.cls-9{fill:#414042;}</style></defs><g id="Layer_2" data-name="Layer 2"><g id="icons"><path class="cls-1" d="M78.93,189.44,199.6,68.58a13.62,13.62,0,0,0,0-19.26L157,6.72a13.63,13.63,0,0,0-19.26,0l-135,135L50.4,189.44Z"/><path class="cls-2" d="M78.93,189.44,199.6,68.58a13.62,13.62,0,0,0,0-19.26L169.23,19.38a13.62,13.62,0,0,0-19.26,0l-135,135L50.4,189.44Z"/><path class="cls-3" d="M72,182.9,192.64,62a13.6,13.6,0,0,0,0-19.25L165.43,15.64a13.61,13.61,0,0,0-19.25,0l-135,135L50.4,189.44Z"/><path class="cls-4" d="M55.19,89.38,138.76,5.81s7.69-7.44,18.25.91l42.59,42.6s10.47,8.78,0,19.26L117,151.24Z"/><g class="cls-5"><path class="cls-6" d="M55.19,89.38,138.76,5.81s7.69-7.44,18.25.91l42.59,42.6s10.47,8.78,0,19.26L117,151.24Z"/></g><path class="cls-4" d="M64.34,98.41l83.57-83.58s7.7-7.43,18.25.92L199.6,49.32s10.47,8.78,0,19.26L117,151.24Z"/><g class="cls-5"><path class="cls-7" d="M64.34,98.41l83.57-83.58s7.7-7.43,18.25.92L199.6,49.32s10.47,8.78,0,19.26L117,151.24Z"/></g><path class="cls-4" d="M64.34,98.41l83.57-83.58s7.7-7.43,18.25.92l26.62,26.41s10.47,8.78,0,19.26l-82.56,82.66Z"/><polygon class="cls-8" points="106.48 161.69 44.63 99.84 55.19 89.38 117.04 151.24 106.48 161.69"/><g class="cls-5"><polygon class="cls-6" points="106.48 161.69 44.63 99.84 55.19 89.38 117.04 151.24 106.48 161.69"/></g><polygon class="cls-8" points="106.48 161.69 53.79 108.87 64.34 98.41 117.04 151.24 106.48 161.69"/><g class="cls-5"><polygon class="cls-7" points="106.48 161.69 53.79 108.87 64.34 98.41 117.04 151.24 106.48 161.69"/></g><polygon class="cls-8" points="99.66 154.54 53.79 108.87 64.34 98.41 110.22 144.08 99.66 154.54"/><path class="cls-9" d="M106.48,165.05,41.26,99.84,55.19,86l65.22,65.21ZM48,99.85l58.49,58.49,7.18-7.11L55.18,92.74Z"/><path class="cls-3" d="M103.85,120,86.47,102.57l9.46-9.45,3.37,3.37-5.42,5.42,3.2,3.19,5-5,3.48,3.49-5,5,3.79,3.79,5.42-5.42,3.53,3.54Z"/><path class="cls-3" d="M115.82,108,98.44,90.6,103,86a26.67,26.67,0,0,1,3.47-3,5,5,0,0,1,5-.54,7.85,7.85,0,0,1,2.48,1.76,7.62,7.62,0,0,1,2,3,6,6,0,0,1,0,3.3c1.81-.7,3.79-.05,5.94,2l.06.06,1,.92q3,2.9,4.65,2.71L122.85,101a11.52,11.52,0,0,1-1.37-.9,15.9,15.9,0,0,1-1.34-1.2c-.28-.28-.61-.62-1-1l-.75-.8a5.73,5.73,0,0,0-2.59-1.76,2.46,2.46,0,0,0-2.09.92l-.84.83,7,6.95Zm-6.13-14.16.28-.25c.11-.11.2-.18.25-.24A3.57,3.57,0,0,0,111.5,91a3.26,3.26,0,0,0-1.19-2.24,2.85,2.85,0,0,0-2.11-1.06A3.81,3.81,0,0,0,106,89.06c-.06,0-.13.14-.24.25l-.25.28Z"/><path class="cls-3" d="M128.1,95.69,114.52,74.53l4.83-4.83,21.12,13.63-4.06,4.06-3.84-2.82-3.19,3.19,2.82,3.84Zm-1.44-11.48L129,81.87l-8.75-6.42Z"/><path class="cls-3" d="M135.64,76.38l3.73-3.73.5.51a6,6,0,0,0,2.36,1.68,1.71,1.71,0,0,0,1.73-.55,1.77,1.77,0,0,0,.57-1.46,2.6,2.6,0,0,0-.84-1.59c-.85-.84-2.26-1-4.25-.61l-.75.15-.32.07a19.14,19.14,0,0,1-5.53.56,6.69,6.69,0,0,1-2.07-.77,8.35,8.35,0,0,1-2-1.5,6.75,6.75,0,0,1-2.26-4.89,7,7,0,0,1,2.33-4.93A7.53,7.53,0,0,1,134,56.75a6.91,6.91,0,0,1,5,2.36l.27.3.27.29-3.65,3.64-.21-.21a4.72,4.72,0,0,0-2.08-1.37,1.74,1.74,0,0,0-2.14,1.78,2.34,2.34,0,0,0,.74,1.44q1.11,1.11,4.34.36l.91-.19c.17-.05.41-.1.72-.16a13.18,13.18,0,0,1,5-.45,6.73,6.73,0,0,1,1.93.79A9.12,9.12,0,0,1,147,66.79a7.8,7.8,0,0,1,2.66,5.37,7.25,7.25,0,0,1-2.45,5.28q-2.65,2.64-5.32,2.61c-1.78,0-3.56-.91-5.34-2.68l-.35-.36Z"/><path class="cls-3" d="M154.19,69.61,136.81,52.23l9.46-9.45,3.37,3.37-5.41,5.42,3.19,3.19,5-5,3.49,3.49-5,5L154.7,62l5.41-5.42,3.54,3.53Z"/><path class="cls-3" d="M166.16,57.64,148.79,40.26l4.57-4.57a25.36,25.36,0,0,1,3.46-3,5.37,5.37,0,0,1,2.37-.93,5.31,5.31,0,0,1,2.61.39,8.87,8.87,0,0,1,4.48,4.79,5.86,5.86,0,0,1,0,3.3q2.72-1,6,2l0,0c.23.21.55.52,1,.93,2,1.92,3.54,2.83,4.65,2.71l-4.75,4.75a9.77,9.77,0,0,1-1.36-.91,13.09,13.09,0,0,1-1.35-1.19c-.28-.28-.6-.62-1-1l-.75-.8a5.71,5.71,0,0,0-2.6-1.76,2.45,2.45,0,0,0-2.09.91l-.83.84,7,6.95ZM160,43.48c.07-.07.16-.16.28-.26s.2-.18.25-.23a3.61,3.61,0,0,0,1.29-2.3,3.34,3.34,0,0,0-1.19-2.24,2.94,2.94,0,0,0-2.11-1.06,3.8,3.8,0,0,0-2.26,1.32l-.23.26a3.54,3.54,0,0,1-.26.27Z"/><path class="cls-9" d="M78.93,192.18H50.4a2.74,2.74,0,0,1-1.94-.8L.8,143.67a2.75,2.75,0,0,1,0-3.88l135-135a16.4,16.4,0,0,1,23.14,0l42.59,42.6a16.38,16.38,0,0,1,0,23.14L80.87,191.38A2.74,2.74,0,0,1,78.93,192.18ZM51.54,186.7H77.79L197.66,66.64a10.89,10.89,0,0,0,0-15.38L155.07,8.66a10.89,10.89,0,0,0-15.38,0L6.62,141.73Z"/></g></g></svg>