<svg xmlns="http://www.w3.org/2000/svg" viewBox="0 0 8.26 10.66"><g id="Layer_2" data-name="Layer 2"><g id="Layer_1-2" data-name="Layer 1"><path d="M0,10.66V0H3.83A5.44,5.44,0,0,1,7,.75,2.51,2.51,0,0,1,8,2.94a2.49,2.49,0,0,1-.38,1.42,2.14,2.14,0,0,1-1.12.86A2.23,2.23,0,0,1,7.81,6a2.38,2.38,0,0,1,.45,1.47,2.82,2.82,0,0,1-1,2.35,4.68,4.68,0,0,1-2.94.8ZM2.57,4.45H3.91a1.94,1.94,0,0,0,1.2-.31,1.1,1.1,0,0,0,.36-.89,1.16,1.16,0,0,0-.39-1A2.13,2.13,0,0,0,3.83,2H2.57Zm0,1.68V8.69H4.26a1.58,1.58,0,0,0,1.06-.32,1.11,1.11,0,0,0,.38-.9A1.18,1.18,0,0,0,4.37,6.13Z"/></g></g></svg>