<svg xmlns="http://www.w3.org/2000/svg" viewBox="0 0 3.94 4.01"><g id="Layer_2" data-name="Layer 2"><g id="Layer_1-2" data-name="Layer 1"><path d="M3.57,2.54H3V1.61h.53a.37.37,0,0,0,.37-.36A.38.38,0,0,0,3.57.88H3V.43A.36.36,0,0,0,2.68.07a.37.37,0,0,0-.37.36V.88H1.63V.36A.36.36,0,0,0,1.27,0,.37.37,0,0,0,.9.36V.88H.36A.37.37,0,0,0,0,1.25a.36.36,0,0,0,.36.36H.9v.93H.36a.37.37,0,0,0,0,.73H.9v.3a.38.38,0,0,0,.37.37.37.37,0,0,0,.36-.37v-.3h.68v.37A.38.38,0,0,0,2.68,4,.37.37,0,0,0,3,3.64V3.27h.53a.37.37,0,1,0,0-.73Zm-1.94,0V1.61h.68v.93Z"/></g></g></svg>