<?xml version="1.0" encoding="utf-8"?>
<!-- Generator: Adobe Illustrator 25.2.0, SVG Export Plug-In . SVG Version: 6.00 Build 0)  -->
<svg version="1.1" id="icons" xmlns="http://www.w3.org/2000/svg" xmlns:xlink="http://www.w3.org/1999/xlink" x="0px" y="0px"
	 viewBox="0 0 19.4 20.2" style="enable-background:new 0 0 19.4 20.2;" xml:space="preserve">
<style type="text/css">
	.st0{fill:#173042;}
</style>
<path class="st0" d="M12.8,18.8H2c-0.7,0-1.2-0.6-1.2-1.2c0-0.7,0.6-1.2,1.2-1.2h10.7c0.7,0,1.2,0.6,1.2,1.2
	C14,18.2,13.5,18.8,12.8,18.8z"/>
<path class="st0" d="M7.8,13.8H2.3c-0.9,0-1.5-0.6-1.5-1.2s0.7-1.3,1.5-1.3h5.5c0.9,0,1.5,0.6,1.5,1.3S8.6,13.8,7.8,13.8z"/>
<path class="st0" d="M14.7,8.8H2c-0.7,0-1.2-0.6-1.2-1.2S1.4,6.3,2,6.3h12.6c0.7,0,1.2,0.6,1.2,1.2S15.4,8.8,14.7,8.8z"/>
<path class="st0" d="M16.8,3.8H2c-0.7,0-1.2-0.6-1.2-1.2S1.4,1.3,2,1.3h14.8c0.7,0,1.2,0.6,1.2,1.2S17.5,3.8,16.8,3.8z"/>
</svg>
