<svg xmlns="http://www.w3.org/2000/svg" viewBox="0 0 220.27 225.51"><g id="Layer_2" data-name="Layer 2"><g id="icons"><path d="M32.19,37.49c36.18-36.17,93.08-42,135.93-15.34l1.44-1.75L182.3,5A13.58,13.58,0,0,1,206,10.66l13.91,63.27a13.57,13.57,0,0,1-13.58,16.48l-64.75-1.58a13.57,13.57,0,0,1-10.15-22.19L143.61,51.9,145.19,50a74.18,74.18,0,0,0-95.61,22c-19.79,27.19-18.93,63.19,2.13,89.57a74.5,74.5,0,0,0,97.82,16.85,17.48,17.48,0,0,1,16.29-1.17,17.95,17.95,0,0,1,2.38,31.66A109.79,109.79,0,0,1,41.64,201.6,110.19,110.19,0,0,1,32.19,37.49Z"/></g></g></svg>