<?xml version="1.0" encoding="utf-8"?>
<!-- Generator: Adobe Illustrator 25.2.0, SVG Export Plug-In . SVG Version: 6.00 Build 0)  -->
<svg version="1.1" id="Layer_1" xmlns="http://www.w3.org/2000/svg" xmlns:xlink="http://www.w3.org/1999/xlink" x="0px" y="0px"
	 viewBox="0 0 56.8 48.5" style="enable-background:new 0 0 56.8 48.5;" xml:space="preserve">
<path d="M11.7,32.5c2.9,0,5.9,0,8.8,0c0.1,0.1,0.2,0.2,0.2,0.3c0.8,6.5,8.4,9.9,14,6.2c2.7-1.8,3-5.8,0.4-7.9
	c-1.8-1.4-3.8-2.3-6.2-2.3c-8.6,0.1-17.1,0-25.7,0c-0.6,0-1.3,0-2,0c0-2,0-3.9,0-5.9c18.4,0,36.8,0,55.3,0c0,1.9,0,3.9,0,6
	c-3.8,0-7.7,0-11.6,0c0.4,1.3,0.8,2.5,1,3.6c1.1,5.5-1.2,10.5-6.3,12.8c-7.6,3.3-15.2,2.9-22.3-1.6C13.4,41.3,11.4,36.8,11.7,32.5z"
	/>
<path d="M28,19.6c-4.5,0-8.5,0-12.6-0.1c-0.5,0-1.2-0.6-1.5-1.2c-2.2-4.5-0.8-10.3,3.3-13.4c4.2-3.3,9.1-4.1,14.3-3.7
	c3.7,0.3,7.2,1.4,10.1,3.9C44.6,7.7,46,11,46.1,15c-3.1,0-6,0-9,0c-0.1-0.1-0.2-0.2-0.2-0.4c-1.2-5.7-8.2-8.2-12.8-4.5
	c-2.5,2-2.5,5.3,0,7.2C25.2,18,26.5,18.7,28,19.6z"/>
</svg>
