<svg xmlns="http://www.w3.org/2000/svg" viewBox="0 0 126.27 127.12"><g id="Layer_2" data-name="Layer 2"><g id="icons"><path d="M122,30.59c-8.87-8.79-17.62-17.7-26.54-26.43C93.9,2.61,91.83.79,89.84.6,84.6.1,79.28.43,73.75.43c0,7.17,0,14.3,0,21.42,0,4.66-1.36,6-6.07,6q-16.65,0-33.3,0c-4.8,0-6.16-1.39-6.17-6.22,0-7,0-14,0-21.62-5.63,0-10.86,0-16.1,0C4.64.09,0,4.62,0,12.13Q0,63.57,0,115c0,7.51,4.62,12.08,12.09,12.08q51,.06,102,0c7.42,0,12.11-4.69,12.13-12.07,0-24.78,0-49.56,0-74.34A13.58,13.58,0,0,0,122,30.59ZM99.16,99.34c0,5-1.42,6.42-6.33,6.42q-29.86,0-59.73,0c-4.87,0-6.17-1.32-6.17-6.16q0-20.37,0-40.72c0-4.52,1.31-5.83,5.82-5.84H93.38c4.48,0,5.78,1.33,5.78,5.89Q99.18,79.14,99.16,99.34Z"/><path d="M53.64,17.73c0,1.76.78,2.55,2.51,2.54,2.28,0,4.56,0,6.84,0,1.89,0,2.68-.86,2.64-2.72,0-3,0-5.95,0-8.92C65.44-1.45,67.33.17,56.7,0h-.59C54.35,0,53.6.83,53.64,2.56c0,2.48,0,5,0,7.44S53.68,15.16,53.64,17.73Z"/><path d="M45.21,74.64c5.84,0,11.68,0,17.52,0,6,0,12.08,0,18.12,0,3.32,0,5.28-1.82,5.25-4.71s-1.86-4.6-5-4.61q-18-.09-35.93,0c-3.25,0-5.4,2-5.36,4.72S42,74.62,45.21,74.64Z"/><path d="M80.59,84.39q-17.53,0-35.08,0c-3.58,0-5.75,1.82-5.74,4.61s2.16,4.6,5.74,4.62c5.84,0,11.69,0,17.54,0s11.69,0,17.54,0c3.48,0,5.43-1.66,5.51-4.47C86.18,86.19,84.19,84.4,80.59,84.39Z"/></g></g></svg>