<svg xmlns="http://www.w3.org/2000/svg" viewBox="0 0 124 125.13"><g id="Layer_2" data-name="Layer 2"><g id="icons"><path d="M101.83,43q-.36-8.76,0-17.53c.14-3.55-1.13-4.65-4.64-4.59-11.37.18-22.74.06-34.11.06C51.55,21,40,21,28.5,20.9c-3.21,0-4.65.86-4.46,4.28.23,3.93.06,7.89.06,11.84,0,11.4,0,11.34,11.46,10.5C38,47.35,38.8,46.39,39,44.09c.73-8.32.79-8.31,9.21-8.31,1.27,0,2.54.08,3.79,0,2.71-.2,3.52,1.08,3.51,3.67q-.1,26.06,0,52.11c0,2.58-.78,4-3.49,3.63-5.28-.82-6.79,1.69-6.11,6.47a19.57,19.57,0,0,1,0,4.26c-.27,3,.93,4.25,4.07,4.17,6.94-.16,13.9,0,20.84-.06,10.26-.08,8.85,1.43,9.17-9,.12-4.09-.68-6.51-5.38-5.8-3.33.51-4.33-1-4.3-4.29.15-14.37.07-28.74.07-43.11,0-12.55,0-12.47,12.64-12.07,2.77.09,4,.82,3.9,3.8-.44,9.56.28,7.79,8.28,7.95.63,0,1.27-.06,1.9,0C100.52,47.91,102,46.65,101.83,43Z"/><path d="M101.72,7.23c3.79,0,7.58.17,11.36,0,2.79-.16,4,.56,3.8,3.62-.27,3.93-.07,7.89-.06,11.83,0,2.55,1.06,4.51,3.8,4.37,2.41-.12,3.39-1.93,3.34-4.33-.07-3,0-6,0-9,0-2.68-.13-5.37,0-8,.25-4-1.41-5.78-5.53-5.64-5.51.18-11,.09-16.56,0C99.2,0,97,.66,97,3.74,97.06,6.54,99.3,7.22,101.72,7.23Z"/><path d="M0,22.13C0,24.81.66,27.06,3.74,27c2.8-.05,3.48-2.29,3.49-4.71,0-3.79.17-7.58,0-11.36-.16-2.79.56-4,3.62-3.8,3.93.27,7.89.07,11.83.06,2.56,0,4.51-1.06,4.37-3.8C26.89,1,25.08,0,22.68.05c-3,.07-6,0-9,0-2.68,0-5.37.13-8,0C1.62-.21-.13,1.45,0,5.57.19,11.08.1,16.61,0,22.13Z"/><path d="M22.28,117.9c-3.79,0-7.58-.16-11.36,0-2.79.15-4-.57-3.8-3.63.26-3.93.07-7.88.06-11.83,0-2.55-1.06-4.5-3.81-4.37C1,98.25,0,100.05,0,102.45c.06,3,0,6,0,9,0,2.68.13,5.37,0,8-.24,4,1.42,5.77,5.53,5.63,5.52-.18,11.05-.09,16.57,0,2.68,0,4.93-.62,4.87-3.71C26.94,118.59,24.7,117.92,22.28,117.9Z"/><path d="M124,103c0-2.68-.63-4.93-3.71-4.87-2.81.05-3.48,2.29-3.49,4.71,0,3.79-.17,7.58,0,11.36.15,2.8-.56,4-3.62,3.8-3.93-.26-7.89-.06-11.83,0-2.56,0-4.51,1-4.37,3.8.12,2.4,1.93,3.38,4.33,3.33,3-.06,6,0,9,0,2.68,0,5.37-.13,8,0,4,.24,5.78-1.42,5.64-5.53C123.8,114.05,123.9,108.52,124,103Z"/></g></g></svg>