<svg xmlns="http://www.w3.org/2000/svg" viewBox="0 0 220.27 225.51"><g id="Layer_2" data-name="Layer 2"><g id="icons"><path d="M188.07,37.49C151.9,1.32,95-4.55,52.14,22.15L50.7,20.4,38,5a13.57,13.57,0,0,0-23.73,5.71L.32,73.93A13.57,13.57,0,0,0,13.91,90.41l64.75-1.58A13.56,13.56,0,0,0,88.8,66.64L76.65,51.9,75.07,50a74.18,74.18,0,0,1,95.61,22c19.79,27.19,18.94,63.19-2.12,89.57a74.5,74.5,0,0,1-97.82,16.85,17.5,17.5,0,0,0-16.3-1.17,17.94,17.94,0,0,0-2.37,31.66,110.11,110.11,0,0,0,136-171.35Z"/></g></g></svg>