<svg id="Layer_1" data-name="Layer 1" xmlns="http://www.w3.org/2000/svg" viewBox="0 0 1921.64 900.92"><defs><style>.cls-1{fill:#06add2;}</style></defs><path class="cls-1" d="M1701.58,1224.51v900.92a657.69,657.69,0,0,1-77.91-5.94,522.85,522.85,0,0,1-73.81-15.36c-32.55-9.21-64-21.67-95.63-33.43-40.54-15-82.15-25.77-125-31.11-19.09-2.37-38.28-3.8-57.55-4.48-43.42-1.52-86.73-1.35-129.93,4.18a564,564,0,0,0-72.44,14c-32.44,8.56-63.72,20.62-95.31,31.71a567,567,0,0,1-171.89,32.11c-39.55,1.16-79.14.91-118.6-3.67a613.1,613.1,0,0,1-71.53-12.23c-37-8.81-72.49-22.43-108-35.88-38.17-14.46-77.22-25.72-117.62-31.83a614,614,0,0,0-69.86-6.65c-44.77-1.59-89.43-1.51-134,4.22a554.55,554.55,0,0,0-88.14,18.62c-31,9.24-61,21.22-91.73,31.35-45.9,15.15-93.08,23.67-141.24,26.91-24.93,1.68-49.91,1.35-74.89,1.14-6.53-.06-6.53,0-6.53-6.75V1230c0-1.83.1-3.65.16-5.48l7.49,0Z" transform="translate(220.06 -1224.51)"/></svg>